<svg width="24" height="20" viewBox="0 0 24 20" fill="none" xmlns="http://www.w3.org/2000/svg">
<path d="M17.5361 19.4819C17.3505 19.7411 17.134 19.8634 16.8866 19.849C16.6392 19.8346 16.4227 19.6979 16.2371 19.4387C16.0515 19.1795 15.9588 18.8699 15.9588 18.5099C15.9588 18.15 16.0515 17.8404 16.2371 17.5812L21.7113 9.93532L16.268 2.33264C16.0825 2.07346 15.9948 1.76388 16.0052 1.4039C16.0155 1.04393 16.1134 0.73435 16.299 0.475168C16.4845 0.215985 16.7062 0.0863944 16.9639 0.0863944C17.2216 0.0863944 17.4433 0.215985 17.6289 0.475168L23.7216 9.02818C23.9072 9.28737 24 9.58975 24 9.93532C24 10.2809 23.9072 10.5833 23.7216 10.8425L17.5361 19.4819ZM6.40206 19.3523L0.278351 10.8425C0.0927837 10.5833 0 10.2809 0 9.93532C0 9.58975 0.0927837 9.28737 0.278351 9.02818L6.46392 0.388774C6.64948 0.129592 6.87113 0 7.12887 0C7.3866 0 7.60825 0.129592 7.79381 0.388774C7.97938 0.647956 8.07216 0.957535 8.07216 1.31751C8.07216 1.67749 7.97938 1.98706 7.79381 2.24625L2.28866 9.93532L7.73196 17.538C7.91753 17.7972 8.01031 18.0996 8.01031 18.4451C8.01031 18.7907 7.91753 19.0931 7.73196 19.3523C7.54639 19.6115 7.32474 19.7411 7.06701 19.7411C6.80928 19.7411 6.58763 19.6115 6.40206 19.3523Z" fill="url(#paint0_linear_26_319)"/>
<defs>
<linearGradient id="paint0_linear_26_319" x1="12" y1="0" x2="12" y2="19.8502" gradientUnits="userSpaceOnUse">
<stop stop-color="#B6F829"/>
<stop offset="1" stop-color="#67DD0A"/>
</linearGradient>
</defs>
</svg>
