<svg width="379" height="50" viewBox="0 0 379 50" fill="none" xmlns="http://www.w3.org/2000/svg">
<path d="M40.7151 5.73602L35.1471 39H24.9231L20.7951 13.608L16.4271 39H6.44307L0.971069 5.73602H8.84307L12.1551 33.048L16.7631 5.73602H25.0191L29.3391 33.048L33.2271 5.73602H40.7151Z" fill="#141414"/>
<path d="M51.7397 13.512V39H44.1557V13.512H51.7397ZM47.8997 0.0720215C49.2117 0.0720215 50.2837 0.488022 51.1157 1.32002C51.9797 2.12002 52.4117 3.14402 52.4117 4.39202C52.4117 5.64002 51.9797 6.68002 51.1157 7.51202C50.2837 8.31202 49.2117 8.71202 47.8997 8.71202C46.5877 8.71202 45.5157 8.31202 44.6837 7.51202C43.8517 6.68002 43.4357 5.64002 43.4357 4.39202C43.4357 3.14402 43.8517 2.12002 44.6837 1.32002C45.5157 0.488022 46.5877 0.0720215 47.8997 0.0720215Z" fill="#141414"/>
<path d="M64.4706 39.816C62.2626 39.816 60.5346 39.192 59.2866 37.944C58.0706 36.664 57.4626 34.856 57.4626 32.52V3.38402L65.0466 2.56802V32.232C65.0466 33.288 65.4786 33.816 66.3426 33.816C66.7906 33.816 67.2066 33.736 67.5906 33.576L69.0786 38.952C67.7026 39.528 66.1666 39.816 64.4706 39.816Z" fill="#141414"/>
<path d="M78.7206 39.816C76.5126 39.816 74.7846 39.192 73.5366 37.944C72.3206 36.664 71.7126 34.856 71.7126 32.52V3.38402L79.2966 2.56802V32.232C79.2966 33.288 79.7286 33.816 80.5926 33.816C81.0406 33.816 81.4566 33.736 81.8406 33.576L83.3286 38.952C81.9526 39.528 80.4166 39.816 78.7206 39.816Z" fill="#141414"/>
<path d="M93.7866 13.512V39H86.2026V13.512H93.7866ZM89.9466 0.0720215C91.2586 0.0720215 92.3306 0.488022 93.1626 1.32002C94.0266 2.12002 94.4586 3.14402 94.4586 4.39202C94.4586 5.64002 94.0266 6.68002 93.1626 7.51202C92.3306 8.31202 91.2586 8.71202 89.9466 8.71202C88.6346 8.71202 87.5626 8.31202 86.7306 7.51202C85.8986 6.68002 85.4826 5.64002 85.4826 4.39202C85.4826 3.14402 85.8986 2.12002 86.7306 1.32002C87.5626 0.488022 88.6346 0.0720215 89.9466 0.0720215Z" fill="#141414"/>
<path d="M120.005 31.608C120.005 32.568 120.133 33.272 120.389 33.72C120.677 34.168 121.125 34.504 121.733 34.728L120.149 39.672C118.581 39.544 117.301 39.208 116.309 38.664C115.317 38.088 114.549 37.192 114.005 35.976C112.341 38.536 109.781 39.816 106.325 39.816C103.797 39.816 101.781 39.08 100.277 37.608C98.7734 36.136 98.0214 34.216 98.0214 31.848C98.0214 29.064 99.0454 26.936 101.093 25.464C103.141 23.992 106.101 23.256 109.973 23.256H112.565V22.152C112.565 20.648 112.245 19.624 111.605 19.08C110.965 18.504 109.845 18.216 108.245 18.216C107.413 18.216 106.405 18.344 105.221 18.6C104.037 18.824 102.821 19.144 101.573 19.56L99.8454 14.568C101.445 13.96 103.077 13.496 104.741 13.176C106.437 12.856 108.005 12.696 109.445 12.696C113.093 12.696 115.765 13.448 117.461 14.952C119.157 16.456 120.005 18.712 120.005 21.72V31.608ZM108.533 34.392C110.261 34.392 111.605 33.576 112.565 31.944V27.432H110.693C108.965 27.432 107.669 27.736 106.805 28.344C105.973 28.952 105.557 29.896 105.557 31.176C105.557 32.2 105.813 33 106.325 33.576C106.869 34.12 107.605 34.392 108.533 34.392Z" fill="#141414"/>
<path d="M140.974 12.696C143.182 12.696 144.91 13.368 146.158 14.712C147.406 16.056 148.03 17.944 148.03 20.376V39H140.446V21.672C140.446 20.392 140.238 19.512 139.822 19.032C139.438 18.52 138.846 18.264 138.046 18.264C136.51 18.264 135.038 19.368 133.63 21.576V39H126.046V13.512H132.67L133.198 16.536C134.286 15.256 135.454 14.296 136.702 13.656C137.982 13.016 139.406 12.696 140.974 12.696Z" fill="#141414"/>
<path d="M190.916 39H180.884L171.284 13.224C171.604 15.752 171.844 17.992 172.004 19.944C172.196 21.864 172.292 24.152 172.292 26.808V39H165.284V5.73602H175.076L184.916 31.56C184.212 27.176 183.86 23.048 183.86 19.176V5.73602H190.916V39Z" fill="#141414"/>
<path d="M204.552 13.512V39H196.968V13.512H204.552ZM200.712 0.0720215C202.024 0.0720215 203.096 0.488022 203.928 1.32002C204.792 2.12002 205.224 3.14402 205.224 4.39202C205.224 5.64002 204.792 6.68002 203.928 7.51202C203.096 8.31202 202.024 8.71202 200.712 8.71202C199.4 8.71202 198.328 8.31202 197.496 7.51202C196.664 6.68002 196.248 5.64002 196.248 4.39202C196.248 3.14402 196.664 2.12002 197.496 1.32002C198.328 0.488022 199.4 0.0720215 200.712 0.0720215Z" fill="#141414"/>
<path d="M219.491 12.696C221.315 12.696 223.027 12.968 224.627 13.512C226.227 14.056 227.635 14.824 228.851 15.816L226.067 20.088C223.987 18.776 221.891 18.12 219.779 18.12C218.787 18.12 218.019 18.296 217.475 18.648C216.963 18.968 216.707 19.432 216.707 20.04C216.707 20.52 216.819 20.92 217.043 21.24C217.299 21.528 217.795 21.832 218.531 22.152C219.267 22.472 220.403 22.856 221.939 23.304C224.595 24.072 226.563 25.08 227.843 26.328C229.155 27.544 229.811 29.24 229.811 31.416C229.811 33.144 229.315 34.648 228.323 35.928C227.331 37.176 225.971 38.136 224.243 38.808C222.515 39.48 220.595 39.816 218.483 39.816C216.339 39.816 214.339 39.48 212.483 38.808C210.659 38.136 209.107 37.208 207.827 36.024L211.523 31.896C213.667 33.56 215.923 34.392 218.291 34.392C219.443 34.392 220.339 34.184 220.979 33.768C221.651 33.352 221.987 32.76 221.987 31.992C221.987 31.384 221.859 30.904 221.603 30.552C221.347 30.2 220.851 29.88 220.115 29.592C219.379 29.272 218.211 28.888 216.611 28.44C214.083 27.704 212.195 26.68 210.947 25.368C209.699 24.056 209.075 22.424 209.075 20.472C209.075 19 209.491 17.688 210.323 16.536C211.187 15.352 212.403 14.424 213.971 13.752C215.571 13.048 217.411 12.696 219.491 12.696Z" fill="#141414"/>
<path d="M244.758 12.696C246.518 12.696 248.102 12.952 249.51 13.464C250.918 13.976 252.246 14.76 253.494 15.816L250.23 20.328C248.63 19.112 247.014 18.504 245.382 18.504C243.686 18.504 242.406 19.128 241.542 20.376C240.678 21.624 240.246 23.64 240.246 26.424C240.246 29.112 240.678 31.016 241.542 32.136C242.406 33.256 243.654 33.816 245.286 33.816C246.15 33.816 246.934 33.688 247.638 33.432C248.342 33.144 249.19 32.696 250.182 32.088L253.494 36.792C250.966 38.808 248.102 39.816 244.902 39.816C242.31 39.816 240.07 39.272 238.182 38.184C236.294 37.064 234.838 35.512 233.814 33.528C232.79 31.512 232.278 29.16 232.278 26.472C232.278 23.784 232.79 21.4 233.814 19.32C234.838 17.24 236.294 15.624 238.182 14.472C240.07 13.288 242.262 12.696 244.758 12.696Z" fill="#141414"/>
<path d="M271.615 12.696C273.823 12.696 275.551 13.368 276.799 14.712C278.047 16.056 278.671 17.944 278.671 20.376V39H271.087V21.672C271.087 20.392 270.879 19.512 270.463 19.032C270.047 18.52 269.455 18.264 268.687 18.264C267.151 18.264 265.679 19.352 264.271 21.528V39H256.687V3.38402L264.271 2.61602V16.248C265.327 15.064 266.447 14.184 267.631 13.608C268.815 13 270.143 12.696 271.615 12.696Z" fill="#141414"/>
<path d="M291.974 13.512V39H284.39V13.512H291.974ZM288.134 0.0720215C289.446 0.0720215 290.518 0.488022 291.35 1.32002C292.214 2.12002 292.646 3.14402 292.646 4.39202C292.646 5.64002 292.214 6.68002 291.35 7.51202C290.518 8.31202 289.446 8.71202 288.134 8.71202C286.822 8.71202 285.75 8.31202 284.918 7.51202C284.086 6.68002 283.67 5.64002 283.67 4.39202C283.67 3.14402 284.086 2.12002 284.918 1.32002C285.75 0.488022 286.822 0.0720215 288.134 0.0720215Z" fill="#141414"/>
<path d="M321.409 15C319.745 15.672 317.297 16.008 314.065 16.008C315.729 16.712 316.945 17.576 317.713 18.6C318.481 19.624 318.865 20.952 318.865 22.584C318.865 24.216 318.433 25.688 317.569 27C316.705 28.28 315.457 29.288 313.825 30.024C312.225 30.76 310.337 31.128 308.161 31.128C307.137 31.128 306.161 31.032 305.233 30.84C304.977 30.968 304.769 31.176 304.609 31.464C304.481 31.72 304.417 31.992 304.417 32.28C304.417 32.76 304.593 33.144 304.945 33.432C305.329 33.688 306.081 33.816 307.201 33.816H311.041C312.993 33.816 314.705 34.136 316.177 34.776C317.649 35.416 318.785 36.296 319.585 37.416C320.385 38.536 320.785 39.8 320.785 41.208C320.785 43.864 319.633 45.928 317.329 47.4C315.057 48.904 311.761 49.656 307.441 49.656C304.337 49.656 301.889 49.32 300.097 48.648C298.305 48.008 297.041 47.096 296.305 45.912C295.601 44.728 295.249 43.24 295.249 41.448H302.065C302.065 42.216 302.209 42.824 302.497 43.272C302.817 43.72 303.377 44.056 304.177 44.28C304.977 44.504 306.129 44.616 307.633 44.616C309.713 44.616 311.153 44.36 311.953 43.848C312.753 43.368 313.153 42.664 313.153 41.736C313.153 40.968 312.849 40.36 312.241 39.912C311.633 39.464 310.721 39.24 309.505 39.24H305.809C303.185 39.24 301.217 38.776 299.905 37.848C298.625 36.888 297.985 35.672 297.985 34.2C297.985 33.272 298.257 32.376 298.801 31.512C299.345 30.616 300.081 29.88 301.009 29.304C299.409 28.44 298.241 27.432 297.505 26.28C296.801 25.096 296.449 23.672 296.449 22.008C296.449 19.16 297.473 16.904 299.521 15.24C301.569 13.544 304.273 12.696 307.633 12.696C310.193 12.76 312.353 12.504 314.113 11.928C315.905 11.352 317.745 10.504 319.633 9.38402L321.409 15ZM307.825 17.688C306.641 17.688 305.697 18.072 304.993 18.84C304.321 19.576 303.985 20.6 303.985 21.912C303.985 23.288 304.321 24.36 304.993 25.128C305.697 25.864 306.641 26.232 307.825 26.232C309.073 26.232 310.017 25.864 310.657 25.128C311.329 24.392 311.665 23.288 311.665 21.816C311.665 19.064 310.385 17.688 307.825 17.688Z" fill="#141414"/>
<path d="M345.41 39H338.834L338.498 35.784C336.642 38.472 334.066 39.816 330.77 39.816C328.434 39.816 326.658 39.112 325.442 37.704C324.258 36.296 323.666 34.328 323.666 31.8V13.512H331.25V30.84C331.25 32.088 331.442 32.968 331.826 33.48C332.242 33.96 332.866 34.2 333.698 34.2C335.298 34.2 336.674 33.208 337.826 31.224V13.512H345.41V39Z" fill="#141414"/>
<path d="M367.358 37.8C366.43 38.44 365.342 38.936 364.094 39.288C362.878 39.64 361.662 39.816 360.446 39.816C354.878 39.784 352.094 36.712 352.094 30.6V18.792H348.494V13.512H352.094V7.99202L359.678 7.12802V13.512H365.534L364.718 18.792H359.678V30.504C359.678 31.688 359.87 32.536 360.254 33.048C360.638 33.56 361.246 33.816 362.078 33.816C362.942 33.816 363.854 33.544 364.814 33L367.358 37.8Z" fill="#141414"/>
<path d="M377.474 13.512V39H369.89V13.512H377.474ZM373.634 0.0720215C374.946 0.0720215 376.018 0.488022 376.85 1.32002C377.714 2.12002 378.146 3.14402 378.146 4.39202C378.146 5.64002 377.714 6.68002 376.85 7.51202C376.018 8.31202 374.946 8.71202 373.634 8.71202C372.322 8.71202 371.25 8.31202 370.418 7.51202C369.586 6.68002 369.17 5.64002 369.17 4.39202C369.17 3.14402 369.586 2.12002 370.418 1.32002C371.25 0.488022 372.322 0.0720215 373.634 0.0720215Z" fill="#141414"/>
</svg>
